<mxfile host="app.diagrams.net" modified="2023-09-14T05:49:31.124Z" agent="Mozilla/5.0 (Windows NT 10.0; Win64; x64) AppleWebKit/537.36 (KHTML, like Gecko) Chrome/116.0.0.0 Safari/537.36 Edg/116.0.1938.81" etag="JjUVepCpwsjzNcxp_knV" version="21.7.4" type="device">
  <diagram name="Page-1" id="HliZvkYfm9As29drVtUJ">
    <mxGraphModel dx="2079" dy="1909" grid="1" gridSize="10" guides="1" tooltips="1" connect="1" arrows="0" fold="1" page="1" pageScale="1" pageWidth="827" pageHeight="1169" math="0" shadow="0">
      <root>
        <mxCell id="0" />
        <mxCell id="1" parent="0" />
        <mxCell id="s92erFOyivXPQjcqMfIY-2" value="Employee" style="whiteSpace=wrap;html=1;align=center;" vertex="1" parent="1">
          <mxGeometry x="10" y="80" width="100" height="40" as="geometry" />
        </mxCell>
        <mxCell id="s92erFOyivXPQjcqMfIY-3" value="Name" style="ellipse;whiteSpace=wrap;html=1;align=center;" vertex="1" parent="1">
          <mxGeometry x="-110" y="-10" width="100" height="40" as="geometry" />
        </mxCell>
        <mxCell id="s92erFOyivXPQjcqMfIY-4" value="Number" style="ellipse;whiteSpace=wrap;html=1;align=center;fontStyle=4;" vertex="1" parent="1">
          <mxGeometry x="-150" y="70" width="100" height="40" as="geometry" />
        </mxCell>
        <mxCell id="s92erFOyivXPQjcqMfIY-11" value="Part" style="whiteSpace=wrap;html=1;align=center;" vertex="1" parent="1">
          <mxGeometry x="490" y="190" width="100" height="40" as="geometry" />
        </mxCell>
        <mxCell id="s92erFOyivXPQjcqMfIY-14" value="Zip code" style="ellipse;whiteSpace=wrap;html=1;align=center;" vertex="1" parent="1">
          <mxGeometry x="30" y="-100" width="100" height="40" as="geometry" />
        </mxCell>
        <mxCell id="s92erFOyivXPQjcqMfIY-17" value="First name" style="ellipse;whiteSpace=wrap;html=1;align=center;" vertex="1" parent="1">
          <mxGeometry x="-240" y="-30" width="100" height="40" as="geometry" />
        </mxCell>
        <mxCell id="s92erFOyivXPQjcqMfIY-19" value="Last name" style="ellipse;whiteSpace=wrap;html=1;align=center;" vertex="1" parent="1">
          <mxGeometry x="-160" y="-80" width="100" height="40" as="geometry" />
        </mxCell>
        <mxCell id="s92erFOyivXPQjcqMfIY-21" value="Number" style="ellipse;whiteSpace=wrap;html=1;align=center;fontStyle=4;" vertex="1" parent="1">
          <mxGeometry x="550" y="30" width="100" height="40" as="geometry" />
        </mxCell>
        <mxCell id="s92erFOyivXPQjcqMfIY-23" value="Name" style="ellipse;whiteSpace=wrap;html=1;align=center;" vertex="1" parent="1">
          <mxGeometry x="630" y="80" width="100" height="40" as="geometry" />
        </mxCell>
        <mxCell id="s92erFOyivXPQjcqMfIY-24" value="Price" style="ellipse;whiteSpace=wrap;html=1;align=center;" vertex="1" parent="1">
          <mxGeometry x="650" y="150" width="100" height="40" as="geometry" />
        </mxCell>
        <mxCell id="s92erFOyivXPQjcqMfIY-26" value="Quantity in stock" style="ellipse;whiteSpace=wrap;html=1;align=center;" vertex="1" parent="1">
          <mxGeometry x="660" y="240" width="100" height="40" as="geometry" />
        </mxCell>
        <mxCell id="s92erFOyivXPQjcqMfIY-44" value="Order" style="shape=rectangle;perimeter=rectanglePerimeter;whiteSpace=wrap;html=1;align=center;" vertex="1" parent="1">
          <mxGeometry x="280" y="410" width="110" height="45" as="geometry" />
        </mxCell>
        <mxCell id="s92erFOyivXPQjcqMfIY-45" value="" style="endArrow=none;html=1;rounded=0;exitX=1;exitY=0.5;exitDx=0;exitDy=0;entryX=0;entryY=0;entryDx=0;entryDy=0;" edge="1" parent="1" source="s92erFOyivXPQjcqMfIY-3" target="s92erFOyivXPQjcqMfIY-2">
          <mxGeometry relative="1" as="geometry">
            <mxPoint x="-20" y="-10" as="sourcePoint" />
            <mxPoint x="140" y="-10" as="targetPoint" />
          </mxGeometry>
        </mxCell>
        <mxCell id="s92erFOyivXPQjcqMfIY-53" value="" style="endArrow=none;html=1;rounded=0;exitX=1;exitY=0.5;exitDx=0;exitDy=0;entryX=0;entryY=0.5;entryDx=0;entryDy=0;" edge="1" parent="1" source="s92erFOyivXPQjcqMfIY-17" target="s92erFOyivXPQjcqMfIY-3">
          <mxGeometry relative="1" as="geometry">
            <mxPoint x="150" y="40" as="sourcePoint" />
            <mxPoint x="310" y="40" as="targetPoint" />
          </mxGeometry>
        </mxCell>
        <mxCell id="s92erFOyivXPQjcqMfIY-55" value="" style="endArrow=none;html=1;rounded=0;exitX=0.5;exitY=1;exitDx=0;exitDy=0;entryX=0;entryY=0;entryDx=0;entryDy=0;" edge="1" parent="1" source="s92erFOyivXPQjcqMfIY-19" target="s92erFOyivXPQjcqMfIY-3">
          <mxGeometry relative="1" as="geometry">
            <mxPoint x="150" y="40" as="sourcePoint" />
            <mxPoint x="310" y="40" as="targetPoint" />
          </mxGeometry>
        </mxCell>
        <mxCell id="s92erFOyivXPQjcqMfIY-56" value="" style="endArrow=none;html=1;rounded=0;exitX=1;exitY=0.5;exitDx=0;exitDy=0;entryX=0;entryY=1;entryDx=0;entryDy=0;" edge="1" parent="1" source="s92erFOyivXPQjcqMfIY-4" target="s92erFOyivXPQjcqMfIY-2">
          <mxGeometry relative="1" as="geometry">
            <mxPoint x="30" y="50" as="sourcePoint" />
            <mxPoint x="60" y="70" as="targetPoint" />
          </mxGeometry>
        </mxCell>
        <mxCell id="s92erFOyivXPQjcqMfIY-57" value="" style="endArrow=none;html=1;rounded=0;exitX=0.5;exitY=1;exitDx=0;exitDy=0;entryX=0.5;entryY=0;entryDx=0;entryDy=0;" edge="1" parent="1" source="s92erFOyivXPQjcqMfIY-14" target="s92erFOyivXPQjcqMfIY-2">
          <mxGeometry relative="1" as="geometry">
            <mxPoint x="40" y="60" as="sourcePoint" />
            <mxPoint x="70" y="20" as="targetPoint" />
          </mxGeometry>
        </mxCell>
        <mxCell id="s92erFOyivXPQjcqMfIY-58" value="Customer" style="whiteSpace=wrap;html=1;align=center;" vertex="1" parent="1">
          <mxGeometry x="-110" y="330" width="100" height="40" as="geometry" />
        </mxCell>
        <mxCell id="s92erFOyivXPQjcqMfIY-59" value="Name" style="ellipse;whiteSpace=wrap;html=1;align=center;" vertex="1" parent="1">
          <mxGeometry x="-240" y="290" width="100" height="40" as="geometry" />
        </mxCell>
        <mxCell id="s92erFOyivXPQjcqMfIY-60" value="Number" style="ellipse;whiteSpace=wrap;html=1;align=center;fontStyle=4;" vertex="1" parent="1">
          <mxGeometry x="-280" y="370" width="100" height="40" as="geometry" />
        </mxCell>
        <mxCell id="s92erFOyivXPQjcqMfIY-61" value="Zip code" style="ellipse;whiteSpace=wrap;html=1;align=center;" vertex="1" parent="1">
          <mxGeometry x="-170" y="460" width="100" height="40" as="geometry" />
        </mxCell>
        <mxCell id="s92erFOyivXPQjcqMfIY-62" value="First name" style="ellipse;whiteSpace=wrap;html=1;align=center;" vertex="1" parent="1">
          <mxGeometry x="-370" y="270" width="100" height="40" as="geometry" />
        </mxCell>
        <mxCell id="s92erFOyivXPQjcqMfIY-63" value="Last name" style="ellipse;whiteSpace=wrap;html=1;align=center;" vertex="1" parent="1">
          <mxGeometry x="-290" y="220" width="100" height="40" as="geometry" />
        </mxCell>
        <mxCell id="s92erFOyivXPQjcqMfIY-64" value="" style="endArrow=none;html=1;rounded=0;exitX=1;exitY=0.5;exitDx=0;exitDy=0;entryX=0;entryY=0;entryDx=0;entryDy=0;" edge="1" parent="1" source="s92erFOyivXPQjcqMfIY-59" target="s92erFOyivXPQjcqMfIY-58">
          <mxGeometry relative="1" as="geometry">
            <mxPoint x="-150" y="290" as="sourcePoint" />
            <mxPoint x="10" y="290" as="targetPoint" />
          </mxGeometry>
        </mxCell>
        <mxCell id="s92erFOyivXPQjcqMfIY-65" value="" style="endArrow=none;html=1;rounded=0;exitX=1;exitY=0.5;exitDx=0;exitDy=0;entryX=0;entryY=0.5;entryDx=0;entryDy=0;" edge="1" parent="1" source="s92erFOyivXPQjcqMfIY-62" target="s92erFOyivXPQjcqMfIY-59">
          <mxGeometry relative="1" as="geometry">
            <mxPoint x="20" y="340" as="sourcePoint" />
            <mxPoint x="180" y="340" as="targetPoint" />
          </mxGeometry>
        </mxCell>
        <mxCell id="s92erFOyivXPQjcqMfIY-66" value="" style="endArrow=none;html=1;rounded=0;exitX=0.5;exitY=1;exitDx=0;exitDy=0;entryX=0;entryY=0;entryDx=0;entryDy=0;" edge="1" parent="1" source="s92erFOyivXPQjcqMfIY-63" target="s92erFOyivXPQjcqMfIY-59">
          <mxGeometry relative="1" as="geometry">
            <mxPoint x="20" y="340" as="sourcePoint" />
            <mxPoint x="180" y="340" as="targetPoint" />
          </mxGeometry>
        </mxCell>
        <mxCell id="s92erFOyivXPQjcqMfIY-67" value="" style="endArrow=none;html=1;rounded=0;exitX=1;exitY=0.5;exitDx=0;exitDy=0;entryX=0;entryY=1;entryDx=0;entryDy=0;" edge="1" parent="1" source="s92erFOyivXPQjcqMfIY-60" target="s92erFOyivXPQjcqMfIY-58">
          <mxGeometry relative="1" as="geometry">
            <mxPoint x="-100" y="350" as="sourcePoint" />
            <mxPoint x="-70" y="370" as="targetPoint" />
          </mxGeometry>
        </mxCell>
        <mxCell id="s92erFOyivXPQjcqMfIY-68" value="" style="endArrow=none;html=1;rounded=0;exitX=0.5;exitY=0;exitDx=0;exitDy=0;entryX=0.5;entryY=1;entryDx=0;entryDy=0;" edge="1" parent="1" source="s92erFOyivXPQjcqMfIY-61" target="s92erFOyivXPQjcqMfIY-58">
          <mxGeometry relative="1" as="geometry">
            <mxPoint x="-90" y="360" as="sourcePoint" />
            <mxPoint x="-60" y="320" as="targetPoint" />
          </mxGeometry>
        </mxCell>
        <mxCell id="s92erFOyivXPQjcqMfIY-73" value="" style="endArrow=none;html=1;rounded=0;exitX=0.5;exitY=1;exitDx=0;exitDy=0;entryX=0.5;entryY=0;entryDx=0;entryDy=0;" edge="1" parent="1" source="s92erFOyivXPQjcqMfIY-21" target="s92erFOyivXPQjcqMfIY-11">
          <mxGeometry relative="1" as="geometry">
            <mxPoint x="460" y="240" as="sourcePoint" />
            <mxPoint x="620" y="240" as="targetPoint" />
          </mxGeometry>
        </mxCell>
        <mxCell id="s92erFOyivXPQjcqMfIY-74" value="" style="endArrow=none;html=1;rounded=0;exitX=0;exitY=1;exitDx=0;exitDy=0;entryX=0.75;entryY=0;entryDx=0;entryDy=0;" edge="1" parent="1" source="s92erFOyivXPQjcqMfIY-23" target="s92erFOyivXPQjcqMfIY-11">
          <mxGeometry relative="1" as="geometry">
            <mxPoint x="610" y="80" as="sourcePoint" />
            <mxPoint x="550" y="200" as="targetPoint" />
          </mxGeometry>
        </mxCell>
        <mxCell id="s92erFOyivXPQjcqMfIY-75" value="" style="endArrow=none;html=1;rounded=0;exitX=0;exitY=1;exitDx=0;exitDy=0;entryX=1;entryY=0.5;entryDx=0;entryDy=0;" edge="1" parent="1" source="s92erFOyivXPQjcqMfIY-24" target="s92erFOyivXPQjcqMfIY-11">
          <mxGeometry relative="1" as="geometry">
            <mxPoint x="620" y="90" as="sourcePoint" />
            <mxPoint x="560" y="210" as="targetPoint" />
          </mxGeometry>
        </mxCell>
        <mxCell id="s92erFOyivXPQjcqMfIY-76" value="" style="endArrow=none;html=1;rounded=0;exitX=0;exitY=0.5;exitDx=0;exitDy=0;entryX=0.5;entryY=1;entryDx=0;entryDy=0;" edge="1" parent="1" source="s92erFOyivXPQjcqMfIY-26" target="s92erFOyivXPQjcqMfIY-11">
          <mxGeometry relative="1" as="geometry">
            <mxPoint x="630" y="100" as="sourcePoint" />
            <mxPoint x="570" y="220" as="targetPoint" />
          </mxGeometry>
        </mxCell>
        <mxCell id="s92erFOyivXPQjcqMfIY-79" value="Order number" style="ellipse;whiteSpace=wrap;html=1;align=center;fontStyle=4;" vertex="1" parent="1">
          <mxGeometry x="414" y="530" width="100" height="40" as="geometry" />
        </mxCell>
        <mxCell id="s92erFOyivXPQjcqMfIY-81" value="Actual ship date" style="ellipse;whiteSpace=wrap;html=1;align=center;" vertex="1" parent="1">
          <mxGeometry x="490" y="410" width="100" height="40" as="geometry" />
        </mxCell>
        <mxCell id="s92erFOyivXPQjcqMfIY-82" value="Expected ship date" style="ellipse;whiteSpace=wrap;html=1;align=center;" vertex="1" parent="1">
          <mxGeometry x="560" y="490" width="100" height="40" as="geometry" />
        </mxCell>
        <mxCell id="s92erFOyivXPQjcqMfIY-83" value="Date of receipt" style="ellipse;whiteSpace=wrap;html=1;align=center;" vertex="1" parent="1">
          <mxGeometry x="230" y="530" width="100" height="40" as="geometry" />
        </mxCell>
        <mxCell id="s92erFOyivXPQjcqMfIY-85" value="" style="endArrow=none;html=1;rounded=0;exitX=1;exitY=0;exitDx=0;exitDy=0;entryX=0;entryY=0.5;entryDx=0;entryDy=0;" edge="1" parent="1" source="s92erFOyivXPQjcqMfIY-44" target="s92erFOyivXPQjcqMfIY-81">
          <mxGeometry relative="1" as="geometry">
            <mxPoint x="460" y="435" as="sourcePoint" />
            <mxPoint x="620" y="435" as="targetPoint" />
          </mxGeometry>
        </mxCell>
        <mxCell id="s92erFOyivXPQjcqMfIY-86" value="" style="endArrow=none;html=1;rounded=0;exitX=0;exitY=0.5;exitDx=0;exitDy=0;entryX=1;entryY=0.5;entryDx=0;entryDy=0;" edge="1" parent="1" source="s92erFOyivXPQjcqMfIY-82" target="s92erFOyivXPQjcqMfIY-44">
          <mxGeometry relative="1" as="geometry">
            <mxPoint x="810" y="305" as="sourcePoint" />
            <mxPoint x="750" y="425" as="targetPoint" />
          </mxGeometry>
        </mxCell>
        <mxCell id="s92erFOyivXPQjcqMfIY-87" value="" style="endArrow=none;html=1;rounded=0;exitX=0.5;exitY=1;exitDx=0;exitDy=0;entryX=0.5;entryY=0;entryDx=0;entryDy=0;" edge="1" parent="1" source="s92erFOyivXPQjcqMfIY-44" target="s92erFOyivXPQjcqMfIY-83">
          <mxGeometry relative="1" as="geometry">
            <mxPoint x="820" y="315" as="sourcePoint" />
            <mxPoint x="760" y="435" as="targetPoint" />
          </mxGeometry>
        </mxCell>
        <mxCell id="s92erFOyivXPQjcqMfIY-89" value="" style="endArrow=none;html=1;rounded=0;exitX=0.75;exitY=1;exitDx=0;exitDy=0;entryX=0;entryY=0.5;entryDx=0;entryDy=0;" edge="1" parent="1" source="s92erFOyivXPQjcqMfIY-44" target="s92erFOyivXPQjcqMfIY-79">
          <mxGeometry relative="1" as="geometry">
            <mxPoint x="840" y="335" as="sourcePoint" />
            <mxPoint x="780" y="455" as="targetPoint" />
          </mxGeometry>
        </mxCell>
        <mxCell id="s92erFOyivXPQjcqMfIY-94" value="Place" style="shape=rhombus;perimeter=rhombusPerimeter;whiteSpace=wrap;html=1;align=center;" vertex="1" parent="1">
          <mxGeometry x="60" y="360" width="120" height="60" as="geometry" />
        </mxCell>
        <mxCell id="s92erFOyivXPQjcqMfIY-95" value="Take" style="shape=rhombus;perimeter=rhombusPerimeter;whiteSpace=wrap;html=1;align=center;" vertex="1" parent="1">
          <mxGeometry x="90" y="180" width="120" height="60" as="geometry" />
        </mxCell>
        <mxCell id="s92erFOyivXPQjcqMfIY-96" value="Include" style="shape=rhombus;perimeter=rhombusPerimeter;whiteSpace=wrap;html=1;align=center;" vertex="1" parent="1">
          <mxGeometry x="394" y="290" width="120" height="60" as="geometry" />
        </mxCell>
        <mxCell id="s92erFOyivXPQjcqMfIY-99" value="" style="endArrow=none;html=1;rounded=0;entryX=0.5;entryY=1;entryDx=0;entryDy=0;exitX=0;exitY=0;exitDx=0;exitDy=0;" edge="1" parent="1" source="s92erFOyivXPQjcqMfIY-95" target="s92erFOyivXPQjcqMfIY-2">
          <mxGeometry relative="1" as="geometry">
            <mxPoint x="230" y="250" as="sourcePoint" />
            <mxPoint x="390" y="250" as="targetPoint" />
          </mxGeometry>
        </mxCell>
        <mxCell id="s92erFOyivXPQjcqMfIY-100" value="1" style="resizable=0;html=1;whiteSpace=wrap;align=right;verticalAlign=bottom;" connectable="0" vertex="1" parent="s92erFOyivXPQjcqMfIY-99">
          <mxGeometry x="1" relative="1" as="geometry">
            <mxPoint y="20" as="offset" />
          </mxGeometry>
        </mxCell>
        <mxCell id="s92erFOyivXPQjcqMfIY-103" value="" style="endArrow=none;html=1;rounded=0;entryX=1;entryY=0.5;entryDx=0;entryDy=0;exitX=0;exitY=0;exitDx=0;exitDy=0;" edge="1" parent="1" source="s92erFOyivXPQjcqMfIY-94" target="s92erFOyivXPQjcqMfIY-58">
          <mxGeometry relative="1" as="geometry">
            <mxPoint x="230" y="250" as="sourcePoint" />
            <mxPoint x="390" y="250" as="targetPoint" />
          </mxGeometry>
        </mxCell>
        <mxCell id="s92erFOyivXPQjcqMfIY-104" value="N" style="resizable=0;html=1;whiteSpace=wrap;align=right;verticalAlign=bottom;direction=south;" connectable="0" vertex="1" parent="s92erFOyivXPQjcqMfIY-103">
          <mxGeometry x="1" relative="1" as="geometry">
            <mxPoint x="290" y="83" as="offset" />
          </mxGeometry>
        </mxCell>
        <mxCell id="s92erFOyivXPQjcqMfIY-105" value="" style="shape=link;html=1;rounded=0;exitX=1;exitY=1;exitDx=0;exitDy=0;entryX=0;entryY=0.5;entryDx=0;entryDy=0;" edge="1" parent="1" source="s92erFOyivXPQjcqMfIY-94" target="s92erFOyivXPQjcqMfIY-44">
          <mxGeometry relative="1" as="geometry">
            <mxPoint x="210" y="370" as="sourcePoint" />
            <mxPoint x="370" y="370" as="targetPoint" />
          </mxGeometry>
        </mxCell>
        <mxCell id="s92erFOyivXPQjcqMfIY-106" value="1" style="resizable=0;html=1;whiteSpace=wrap;align=right;verticalAlign=bottom;" connectable="0" vertex="1" parent="s92erFOyivXPQjcqMfIY-105">
          <mxGeometry x="1" relative="1" as="geometry">
            <mxPoint x="-280" y="-83" as="offset" />
          </mxGeometry>
        </mxCell>
        <mxCell id="s92erFOyivXPQjcqMfIY-107" value="" style="shape=link;html=1;rounded=0;exitX=1;exitY=1;exitDx=0;exitDy=0;entryX=0.25;entryY=0;entryDx=0;entryDy=0;" edge="1" parent="1" source="s92erFOyivXPQjcqMfIY-95" target="s92erFOyivXPQjcqMfIY-44">
          <mxGeometry relative="1" as="geometry">
            <mxPoint x="200" y="276" as="sourcePoint" />
            <mxPoint x="330" y="304" as="targetPoint" />
          </mxGeometry>
        </mxCell>
        <mxCell id="s92erFOyivXPQjcqMfIY-108" value="N" style="resizable=0;html=1;whiteSpace=wrap;align=right;verticalAlign=bottom;" connectable="0" vertex="1" parent="s92erFOyivXPQjcqMfIY-107">
          <mxGeometry x="1" relative="1" as="geometry">
            <mxPoint x="-7" y="-30" as="offset" />
          </mxGeometry>
        </mxCell>
        <mxCell id="s92erFOyivXPQjcqMfIY-109" value="" style="shape=link;html=1;rounded=0;entryX=0.75;entryY=0;entryDx=0;entryDy=0;exitX=0;exitY=1;exitDx=0;exitDy=0;" edge="1" parent="1" source="s92erFOyivXPQjcqMfIY-96" target="s92erFOyivXPQjcqMfIY-44">
          <mxGeometry relative="1" as="geometry">
            <mxPoint x="230" y="250" as="sourcePoint" />
            <mxPoint x="390" y="250" as="targetPoint" />
          </mxGeometry>
        </mxCell>
        <mxCell id="s92erFOyivXPQjcqMfIY-110" value="M" style="resizable=0;html=1;whiteSpace=wrap;align=right;verticalAlign=bottom;" connectable="0" vertex="1" parent="s92erFOyivXPQjcqMfIY-109">
          <mxGeometry x="1" relative="1" as="geometry" />
        </mxCell>
        <mxCell id="s92erFOyivXPQjcqMfIY-111" value="" style="endArrow=none;html=1;rounded=0;entryX=0.25;entryY=1;entryDx=0;entryDy=0;exitX=1;exitY=0;exitDx=0;exitDy=0;" edge="1" parent="1" source="s92erFOyivXPQjcqMfIY-96" target="s92erFOyivXPQjcqMfIY-11">
          <mxGeometry relative="1" as="geometry">
            <mxPoint x="230" y="250" as="sourcePoint" />
            <mxPoint x="390" y="250" as="targetPoint" />
          </mxGeometry>
        </mxCell>
        <mxCell id="s92erFOyivXPQjcqMfIY-112" value="N" style="resizable=0;html=1;whiteSpace=wrap;align=right;verticalAlign=bottom;" connectable="0" vertex="1" parent="s92erFOyivXPQjcqMfIY-111">
          <mxGeometry x="1" relative="1" as="geometry">
            <mxPoint x="-15" y="20" as="offset" />
          </mxGeometry>
        </mxCell>
        <mxCell id="s92erFOyivXPQjcqMfIY-113" value="Quatity" style="ellipse;whiteSpace=wrap;html=1;align=center;" vertex="1" parent="1">
          <mxGeometry x="570" y="330" width="100" height="40" as="geometry" />
        </mxCell>
        <mxCell id="s92erFOyivXPQjcqMfIY-114" value="" style="endArrow=none;html=1;rounded=0;exitX=1;exitY=0.5;exitDx=0;exitDy=0;entryX=0;entryY=0.5;entryDx=0;entryDy=0;" edge="1" parent="1" source="s92erFOyivXPQjcqMfIY-96" target="s92erFOyivXPQjcqMfIY-113">
          <mxGeometry relative="1" as="geometry">
            <mxPoint x="230" y="250" as="sourcePoint" />
            <mxPoint x="390" y="250" as="targetPoint" />
          </mxGeometry>
        </mxCell>
      </root>
    </mxGraphModel>
  </diagram>
</mxfile>
